<svg version="1.1"
	 xmlns="http://www.w3.org/2000/svg" xmlns:xlink="http://www.w3.org/1999/xlink"
	 x="0px" y="0px" width="24.6px" height="16.9px" viewBox="0 0 24.6 16.9" enable-background="new 0 0 24.6 16.9"
	 xml:space="preserve">
	<path fill="#FFFFFF" d="M0,16.1C0,11,0,5.9,0,0.8c0.1-0.1,0.2-0.2,0.2-0.2C0.6,0.1,1,0,1.5,0c7.3,0,14.6,0,21.9,0
		c0.6,0,1.2,0.5,1.2,1.1c0,4.9,0,9.7,0,14.6c0,0.6-0.5,1.1-1.2,1.1c-7.2,0-14.4,0-21.7,0C0.7,16.9,0.7,16.9,0,16.1z M9.8,8.4
		c-2.4,2.4-4.8,4.8-7.1,7.1c6.4,0,12.9,0,19.3,0c-2.4-2.4-4.7-4.7-7.1-7.1c-0.6,0.8-1.5,0.9-2.5,0.9C11.4,9.2,10.4,9.2,9.8,8.4z
		 M3,1.5c0.1,0.1,0.2,0.2,0.3,0.2c2.2,1.7,4.5,3.3,6.6,5c0.9,0.8,1.9,1.2,3.1,1c0.2,0,0.5-0.1,0.6-0.2c2.6-1.9,5.2-3.9,7.8-5.8
		c0.1-0.1,0.2-0.1,0.3-0.2C15.4,1.5,9.2,1.5,3,1.5z M1.5,14.3C3.8,12,6.1,9.7,8.4,7.4C6.1,5.7,3.8,3.9,1.5,2.2
		C1.5,6.3,1.5,10.3,1.5,14.3z M16.3,7.4c2.3,2.3,4.6,4.6,6.9,6.9c0-3.9,0-8,0-12C20.8,4,18.5,5.7,16.3,7.4z"/>
</svg>
