<svg version="1.1"
	 xmlns="http://www.w3.org/2000/svg" xmlns:xlink="http://www.w3.org/1999/xlink"
	 x="0px" y="0px" viewBox="0 0 10.4 22.6" enable-background="new 0 0 10.4 22.6"
	 xml:space="preserve">
<path fill="#FFFFFF" d="M9.6,22.5c-0.6,0.1-1.3,0.1-1.9,0.1c-0.5,0-1,0-1.5-0.1c0,0-0.1,0-0.1,0c-0.4-0.1-0.8-0.3-1.1-0.4
	c-0.1,0-0.1-0.1-0.2-0.1C4.3,21.7,4,21.4,3.6,21c-0.5-0.5-0.8-1-1.2-1.6c-0.3-0.5-0.6-1.1-0.8-1.7c-0.5-1.2-0.8-2.4-1.1-3.6
	c-0.1-0.5-0.2-1-0.3-1.5C0,12,0,11.4,0,10.9C0,10,0.1,9.2,0.2,8.4C0.3,7.7,0.4,7,0.6,6.3c0.1-0.5,0.2-1,0.4-1.5
	c0.2-0.7,0.4-1.3,0.6-2c0.1-0.3,0.2-0.6,0.3-0.8c0.4-0.8,1-1.4,1.8-1.8C4.2,0.2,4.6,0.1,5,0C5.6,0,6.2,0,6.8,0.1
	c0.2,0,0.4,0.1,0.6,0.2c0,0,0,0,0.1,0C6.8,2.3,6.1,4.2,5.4,6.1c0,0-0.1,0-0.1,0C5,6.2,4.6,6.3,4.4,6.5C4.2,6.6,4,6.8,3.9,7
	c-0.2,0.3-0.3,0.7-0.3,1c0,0.1,0,0.1,0,0.2c0.2,1.7,0.3,3.5,0.6,5.2c0.1,0.7,0.2,1.4,0.3,2.1c0,0.2,0.1,0.4,0.2,0.6
	c0.2,0.5,0.5,0.7,1,0.9c0.3,0.1,0.6,0.1,0.9,0.1c0.1,0,0.1,0,0.1,0.1c0.6,1,1.2,2,1.8,3c0.4,0.7,0.8,1.4,1.3,2.2"/>
<path fill="#FFFFFF" d="M10.4,22.4c-1.1-1.8-2.1-3.7-3.2-5.5c0,0,0.1,0,0.1,0c0.4,0,0.9-0.1,1.3-0.1c0.1,0,0.2,0,0.3,0.1
	c0.2,0.1,0.3,0.3,0.5,0.5"/>
<path fill="#FFFFFF" d="M9.2,2C8.8,3.3,8.3,4.6,7.8,5.8c0,0.1-0.1,0.1-0.1,0.1C7.5,6.1,7.4,6.1,7.2,6.2C7.1,6.3,6.9,6.3,6.7,6.3
	c-0.2,0-0.3,0-0.5,0c0,0-0.1,0-0.1-0.1C6,6.2,6,6.2,6,6.1C6,6,6,6,6.1,5.9c0.1-0.3,0.2-0.5,0.3-0.8c0.5-1.5,1.1-3,1.6-4.4
	c0,0,0-0.1,0-0.1c0,0,0.1,0,0.1,0c0.2,0.1,0.4,0.2,0.6,0.4C8.9,1.1,9,1.3,9.1,1.5"/>
</svg>
