<svg version="1.1"
	 xmlns="http://www.w3.org/2000/svg" xmlns:xlink="http://www.w3.org/1999/xlink"
	 x="0px" y="0px" viewBox="0 0 164.7 166" enable-background="new 0 0 164.7 166"
	 xml:space="preserve">
<path fill="#FFFFFF" d="M161,0c-17.2,0.5-50.7,32.2-55.4,36.7c-7.6-4.6-16.5-7.3-26.1-7.3c-27.7,0-50.1,22.4-50.1,50.1
	c0,9.9,2.9,19.1,7.8,26.9l0-0.1c0,0-36.7,37.4-37.2,55.9c-0.6,18.5,57.6-37.7,57.6-37.7l0,0c6.6,3.2,14.1,5.1,22,5.1
	c27.7,0,50.1-22.4,50.1-50.1c0-8.2-2-16-5.5-22.9C131.3,49.2,178.1-0.5,161,0z M50.8,120.6c0,0-16.6,10.5-16,7.2
	c1.4-8.6,5.4-13.8,6.9-15.4c2.7,3.1,5.8,5.9,9.2,8.3L50.8,120.6z M111.8,41.1c2.2-1.8,7.1-5.1,14.7-6.3c2.8-0.5-4.3,11.4-6.5,15
	C117.6,46.6,114.8,43.7,111.8,41.1z"/>
</svg>
