<svg version="1.1"
	 xmlns="http://www.w3.org/2000/svg" xmlns:xlink="http://www.w3.org/1999/xlink"
	 x="0px" y="0px" width="21.6px" height="15.1px" viewBox="0 0 21.6 15.1" enable-background="new 0 0 21.6 15.1"
	 xml:space="preserve">
	<path fill="#FFFFFF" d="M15,0C15.1,0,15.1,0,15,0c-0.1,0.2-0.2,0.4-0.3,0.6c0.3-0.1,0.6-0.2,1-0.2c0.1,0,0.3,0,0.4,0.2
		c0,0.1-0.1,0.3-0.2,0.3C15.6,1,15.3,1.1,15,1.2c-0.2,0.1-0.5,0.1-0.7,0.2c0.7,0,1.4,0.2,2,0.5c1.3,0.7,2.2,1.9,2.6,3.4
		c0,0.2,0,0.4,0.3,0.4c0.3,0,0.6,0.1,0.9,0c0.5-0.1,0.9-0.2,1.4-0.3c-0.5,0.9-1.3,1.2-2.3,1.3C20.1,7,20.8,7.1,21.6,7
		c-0.1,0.1-0.2,0.2-0.4,0.3c-0.6,0.5-1.3,0.6-2,0.7C19.1,7.9,19,8,19,8.2c-0.3,1.1-0.8,2-1.5,2.9c-1.8,2.2-4.2,3.4-7,3.9
		C10,15,9.6,15,9.2,15.1c-0.5,0-1,0-1.5,0c-0.1,0-0.1,0-0.2-0.1c-2.9-0.3-5.3-1.5-7.2-3.7C0.2,11.3,0.1,11.1,0,11
		c2.8,2.2,6.3,1.2,7.7-0.4c-0.3-0.1-0.7-0.2-1.1-0.4C6.2,10,6.2,9.4,6.6,9C6.7,8.9,6.9,8.8,7,8.7c-1.1,0-2-0.4-2.5-1.3
		c0.4-0.4,0.9-0.5,1.4-0.6C4.7,6.4,3.8,5.9,3.6,4.5C4,4.5,4.4,4.4,4.8,4.4C3.5,3.4,2.9,2.5,3.1,1.7c0.1,0,0.1,0,0.2,0.1
		C4.6,2.3,6,2.9,7.4,3.5c0.8,0.4,1.7,0.8,2.3,1.4c0.2,0.2,0.4,0.3,0.5,0.5c0.3-0.6,0.5-1.3,0.8-1.9c0.5-1,1-2,1.9-2.8
		c0.2-0.2,0.5-0.4,0.7-0.6c0,0,0,0,0,0.1c0,0.1-0.1,0.2-0.1,0.3C14.1,0.4,14.6,0.2,15,0z"/>
</svg>
